<svg xmlns="http://www.w3.org/2000/svg" width="512" height="512" viewBox="0 0 120 120">
  <path fill="#4DDEAB" fill-rule="evenodd" d="
      M34,28
      h56
      a20,20 0 0 1 20,20
      v28
      a20,20 0 0 1 -20,20
      H56
      l-18,18
      v-18
      h-4
      a20,20 0 0 1 -20,-20
      V48
      a20,20 0 0 1 20,-20
      Z

      M55,46
      h14
      c6,0 10,4 10,10
      c0,5 -3,9 -8,10
      l10,16
      h-12
      l-8,-14
      h-6
      v14
      h-8
      V46
      Z
    "></path>
</svg>
